<svg width="100" height="106" viewBox="0 0 100 106" fill="none" xmlns="http://www.w3.org/2000/svg">
<path d="M74 22C81.1788 22 87.3115 25.3065 92 30C96.7104 34.6709 100 40.8467 100 48C100 52.8967 99.3294 56.2755 96 63C92.7839 69.4991 86.731 78.7673 75 97C74.5241 97.7448 73.725 98.4741 73 98C72.7736 97.8649 73.1129 97.2031 73 97C61.2688 78.7674 55.1929 69.4991 52 63C48.6478 56.2755 48 52.8967 48 48C48 40.8467 51.2898 34.6709 56 30C60.7111 25.3065 66.8207 22 74 22ZM90 32C85.8554 27.893 80.2956 25 74 25C67.7044 25 62.1221 27.893 58 32C53.8779 36.1295 51 41.7268 51 48C51 52.4231 50.9651 54.9075 54 61C57.0118 67.0925 63.1967 76.1662 74 93C84.7805 76.1664 90.9882 67.0925 94 61C97.0352 54.9075 97 52.4229 97 48C97 41.7268 94.1221 36.1295 90 32Z" fill="#093D5F"/>
<path d="M74 32C78.4149 32 82.1007 34.101 85 37C87.8983 39.8989 90 43.5847 90 48C90 52.4153 87.8983 56.101 85 59C82.1007 61.899 78.4149 64 74 64C69.5851 64 65.8995 61.899 63 59C60.1017 56.101 58 52.4156 58 48C58 43.5844 60.1015 39.8989 63 37C65.8995 34.1008 69.5848 32 74 32ZM83 39C80.6804 36.6809 77.5453 35 74 35C70.4313 35 67.3194 36.6809 65 39C62.6808 41.3193 61 44.4543 61 48C61 51.568 62.6808 54.6807 65 57C67.3194 59.3193 70.4313 61 74 61C77.5453 61 80.6804 59.3193 83 57C85.3191 54.6807 87 51.568 87 48C87 44.4545 85.3191 41.3194 83 39Z" fill="#093D5F"/>
<path d="M20 8C25.5289 8 30.374 10.3539 34 14C37.6263 17.6693 40 22.406 40 28C40 31.8053 39.5518 34.7681 37 40C34.56 44.9824 29.8415 51.9809 21 66C20.5298 66.7248 19.7386 67.4755 19 67C18.7987 66.8637 19.1342 66.2039 19 66C10.158 52.0261 5.43981 44.9824 3 40C0.448219 34.7681 0 31.8055 0 28C0 22.4059 2.37368 17.6693 6 14C9.60406 10.3539 14.4936 8 20 8ZM32 16C28.956 12.92 24.6558 11 20 11C15.3442 11 11.067 12.9199 8 16C4.95597 19.0801 3 23.2892 3 28C3 31.3294 3.76188 33.4023 6 38C8.23863 42.5975 12.0762 49.4303 20 62C27.9464 49.4305 31.7393 42.5977 34 38C36.2383 33.4023 37 31.3293 37 28C37 23.2892 35.0665 19.0801 32 16Z" fill="#093D5F"/>
<path d="M19 15C22.4542 15 25.7191 16.7436 28 19C30.2589 21.2564 32 23.5488 32 27C32 30.4512 30.2588 33.7431 28 36C25.7191 38.2563 22.4542 40 19 40C15.5458 40 13.2584 38.2563 11 36C8.74124 33.7431 7 30.4515 7 27C7 23.5485 8.74124 21.2564 11 19C13.2584 16.7436 15.5455 15 19 15ZM26 21C24.2948 19.3186 21.5907 18 19 18C16.4093 18 14.7049 19.3186 13 21C11.2946 22.7034 10 24.4115 10 27C10 29.5885 11.2946 32.2966 13 34C14.7049 35.6814 16.4091 37 19 37C21.5909 37 24.2948 35.6814 26 34C27.7049 32.2966 29 29.5888 29 27C29 24.4112 27.7049 22.7034 26 21Z" fill="#093D5F"/>
<path d="M27 66C26.1205 66 25 65.862 25 65C25 64.1153 26.1205 63 27 63C31.2617 63 35.4149 64.3441 39 66C42.3599 67.5428 45 68.9833 45 72C45 76.1961 39.5926 77.571 34 79C28.7013 80.3384 23 82.3709 23 86C23 94.1887 46.0121 95 59 95C61.6831 95 63.6918 95.0227 65 95H67C67.8793 95 69 95.138 69 96C69 96.8847 67.8793 98 67 98C66.0305 98 65.6766 97.9773 65 98C63.3089 98.0226 60.8486 98 59 98C44.8844 98 20 97.0692 20 86C20 79.8983 26.5511 77.6557 33 76C37.3521 74.8884 42 73.7239 42 72C42 70.4576 40.2548 69.0209 38 68C34.8428 66.5485 30.8788 66 27 66Z" fill="#093D5F"/>
</svg>
