<svg width="101" height="106" viewBox="0 0 101 106" fill="none" xmlns="http://www.w3.org/2000/svg">
<g clip-path="url(#clip0_1396_11811)">
<path d="M72.667 26C72.1664 26 70.9793 25.4513 70.667 25C69.1541 22.815 68.667 20.69 68.667 18C68.667 10.9112 74.7745 5 81.667 5C88.5595 5 93.667 10.9112 93.667 18C93.667 20.6902 93.1799 22.815 91.667 25C91.154 25.7408 89.3875 26.5278 88.667 26C87.9467 25.4723 88.154 23.7409 88.667 23C89.7912 21.3762 90.667 20.0011 90.667 18C90.667 12.7277 85.7938 8 80.667 8C75.5402 8 71.667 12.7277 71.667 18C71.667 20.0013 72.5427 21.3762 73.667 23C74.18 23.7409 74.3873 25.4723 73.667 26C73.3854 26.2064 72.9883 26 72.667 26Z" fill="#093D5F"/>
<path d="M92.6667 50.9996C92.2348 50.9996 91.985 50.3421 91.6667 49.9996C91.0566 49.3432 91.0145 48.6135 91.6667 47.9996C94.661 45.1809 96.6667 42.0672 96.6667 37.9996C96.6667 32.9128 94.0508 27.737 89.6667 24.9996C88.908 24.5259 88.1959 23.7632 88.6667 22.9996C89.1374 22.2358 89.9078 21.5257 90.6667 21.9996C96.0082 25.3346 99.6667 31.7786 99.6667 37.9996C99.6667 42.9778 97.3218 47.559 93.6667 50.9996C93.3549 51.2931 93.0624 50.9996 92.6667 50.9996Z" fill="#093D5F"/>
<path d="M69.667 50.9996C69.2713 50.9996 68.979 51.2931 68.667 50.9996C65.0117 47.5589 62.667 42.9778 62.667 37.9996C62.667 31.7786 66.3254 25.3346 71.667 21.9996C72.4256 21.5257 73.1962 22.2358 73.667 22.9996C74.1378 23.7632 73.4257 24.5259 72.667 24.9996C68.2828 27.7368 65.667 32.9126 65.667 37.9996C65.667 42.0672 67.6726 45.1809 70.667 47.9996C71.3192 48.6135 71.2771 49.3432 70.667 49.9996C70.3487 50.3421 70.099 50.9996 69.667 50.9996Z" fill="#093D5F"/>
<path d="M81.667 82.0003C71.1904 82.0003 62.667 73.6464 62.667 63.0003C62.667 57.5905 64.7366 51.6497 68.667 48.0003C69.324 47.3902 70.0489 48.3516 70.667 49.0003C71.2849 49.6491 71.324 50.39 70.667 51.0003C67.3901 54.0424 65.667 58.4766 65.667 63.0003C65.667 71.8682 72.9914 79.0003 81.667 79.0003C90.3425 79.0003 97.667 71.8684 97.667 63.0003C97.667 58.4766 95.9439 54.0428 92.667 51.0003C92.01 50.3902 92.049 49.649 92.667 49.0003C93.2849 48.3515 94.01 47.3902 94.667 48.0003C98.5975 51.6497 100.667 57.5907 100.667 63.0003C100.667 73.6464 92.1436 82.0003 81.667 82.0003Z" fill="#093D5F"/>
<path d="M82.667 101C81.8385 101 80.667 99.8925 80.667 99V50C80.667 49.1073 81.8385 48 82.667 48C83.4955 48 83.667 49.1075 83.667 50V99C83.667 99.8927 83.4954 101 82.667 101Z" fill="#093D5F"/>
<path d="M81.6669 72.9995C81.2192 72.9995 80.9991 72.3366 80.6669 71.9995L71.6669 63.9995C71.0253 63.3483 71.9897 61.6163 72.6669 60.9995C73.344 60.3824 74.0255 61.3483 74.6669 61.9995L83.6669 69.9995C84.3085 70.6507 83.3442 72.3827 82.6669 72.9995C82.3405 73.2971 82.0838 72.9995 81.6669 72.9995Z" fill="#093D5F"/>
<path d="M82.6673 62.0002C82.2272 62.0002 80.9802 61.388 80.6673 61.0002C80.091 60.2861 81.0101 59.6264 81.6673 59.0002L86.6673 53.0002C87.3248 52.3738 89.091 53.2863 89.6673 54.0002C90.2436 54.7143 89.3244 55.374 88.6673 56.0002L83.6673 62.0002C83.3669 62.2864 83.0376 62.0002 82.6673 62.0002Z" fill="#093D5F"/>
<path d="M49.667 74H7.66699C6.77149 74 5.66699 72.8919 5.66699 72V61C5.66699 60.1081 6.77149 59 7.66699 59H49.667C50.5625 59 51.667 60.1081 51.667 61V72C51.667 72.8919 50.5625 74 49.667 74ZM8.66699 71H48.667V62H8.66699V71Z" fill="#093D5F"/>
<path d="M54.667 92H2.66699C1.76497 92 0.666992 90.9024 0.666992 90V81C0.666992 80.0974 1.76514 79 2.66699 79H54.667C55.569 79 56.667 80.0976 56.667 81V90C56.667 90.9026 55.5688 92 54.667 92ZM3.66699 89H53.667V82H3.66699V89Z" fill="#093D5F"/>
<path d="M10.667 101C9.83845 101 9.66699 99.897 9.66699 99V91C9.66699 90.1028 9.83845 89 10.667 89C11.4955 89 12.667 90.103 12.667 91V99C12.667 99.8972 11.4954 101 10.667 101Z" fill="#093D5F"/>
<path d="M47.667 101C46.8385 101 45.667 99.897 45.667 99V91C45.667 90.1028 46.8385 89 47.667 89C48.4955 89 48.667 90.103 48.667 91V99C48.667 99.8972 48.4954 101 47.667 101Z" fill="#093D5F"/>
<path d="M15.667 83C14.8385 83 13.667 81.9293 13.667 81V73C13.667 72.0706 14.8385 71 15.667 71C16.4955 71 16.667 72.0707 16.667 73V81C16.667 81.9294 16.4954 83 15.667 83Z" fill="#093D5F"/>
<path d="M42.667 83C41.8385 83 40.667 81.9293 40.667 81V73C40.667 72.0706 41.8385 71 42.667 71C43.4955 71 43.667 72.0707 43.667 73V81C43.667 81.9294 43.4954 83 42.667 83Z" fill="#093D5F"/>
<path d="M19.6671 36.9999C17.7827 36.9999 15.5468 37.0037 13.6671 36.9999C9.76756 36.9921 7.29338 34.6075 5.66712 30.9999C4.14041 27.6123 4.24229 24.9099 6.66712 21.9999C9.10363 19.0759 12.7984 17.9543 16.6671 18.9999C16.9725 19.0825 17.5205 18.9764 17.6671 18.9999C17.6974 18.8602 17.6339 18.2902 17.6671 17.9999C18.3333 12.1684 22.921 8.06768 28.6671 7.99988C31.4908 7.96228 34.526 9.15957 36.6671 10.9999C38.8138 12.8452 40.2634 15.1797 40.6671 17.9999C40.7039 18.2562 40.6387 18.876 40.6671 18.9999C40.3974 19.0397 40.7973 18.9925 40.6671 18.9999C43.1048 18.6393 45.7344 18.654 47.6671 19.9999C49.6111 21.3539 51.1736 23.5779 51.6671 25.9999C52.6631 30.8888 49.5555 35.7966 44.6671 36.9999C43.8911 37.1908 43.3255 36.9983 42.6671 36.9999C39.0122 37.0099 35.2599 37.0011 31.6671 36.9999H28.6671C27.2344 36.9999 25.1 36.999 23.6671 36.9999C22.2562 37.0004 21.1061 36.9999 19.6671 36.9999ZM13.6671 21.9999C11.9572 21.9999 10.8454 22.5857 9.66712 23.9999C8.03206 25.962 7.65135 27.7461 8.66712 29.9999C9.75993 32.4243 11.0452 33.9947 13.6671 33.9999C16.978 34.0064 20.4104 34.0011 23.6671 33.9999C25.1006 33.9992 27.2337 33.9999 28.6671 33.9999H31.6671C35.2577 34.0011 39.0168 34.0097 42.6671 33.9999C43.142 33.9987 43.2319 34.107 43.6671 33.9999C46.8526 33.2158 49.3069 30.1409 48.6671 26.9999C47.9999 23.7241 45.0173 21.5039 41.6671 21.9999C40.6808 22.1455 39.5891 21.6901 38.6671 20.9999C37.7346 20.3017 36.8105 20.0011 36.6671 18.9999C36.3773 16.9758 36.2104 14.3265 34.6671 12.9999C33.1179 11.6681 30.7207 10.9745 28.6671 10.9999C24.5399 11.0487 21.1462 14.8069 20.6671 18.9999C20.5313 20.1892 19.6756 21.3 18.6671 21.9999C17.6552 22.7018 16.8283 22.3137 15.6671 21.9999C14.9447 21.8046 14.3064 21.9999 13.6671 21.9999Z" fill="#093D5F"/>
<path d="M87.667 101H6.66699C5.76577 101 4.66699 100.828 4.66699 100C4.66699 99.1716 5.76577 98 6.66699 98H87.667C88.5682 98 89.667 99.1715 89.667 100C89.667 100.829 88.5682 101 87.667 101Z" fill="#093D5F"/>
</g>
<defs>
<clipPath id="clip0_1396_11811">
<rect width="100" height="106" fill="white" transform="translate(0.666992)"/>
</clipPath>
</defs>
</svg>
