<svg width="101" height="106" viewBox="0 0 101 106" fill="none" xmlns="http://www.w3.org/2000/svg">
<g clip-path="url(#clip0_1396_11858)">
<g clip-path="url(#clip1_1396_11858)">
<path d="M95.333 28.9999H89.333V14.9999C89.333 9.10216 84.1738 4.02571 78.333 3.99995C59.436 2.25731 41.2133 2.25835 22.333 3.99995C16.4752 4.02656 11.333 9.10216 11.333 14.9999V28.9999H5.33301C2.58795 29.2175 0.333008 31.8138 0.333008 34.9999V45.9999C0.333008 48.0434 1.50291 49.9999 3.33301 49.9999H5.33301C7.1631 49.9999 9.33301 48.0436 9.33301 45.9999V34.9999H11.333V90.9999C11.333 93.8795 13.5211 95.6187 16.333 95.9999V98.9999C16.333 101.429 17.9209 103 20.333 103H24.333C26.7453 103 29.333 101.429 29.333 98.9999V95.9999H71.333V97.9999C71.333 100.43 73.9209 103 76.333 103H80.333C82.7452 103 84.333 100.43 84.333 97.9999V95.9999C87.1449 95.6187 89.333 93.8795 89.333 90.9999V34.9999H91.333V45.9999C91.333 48.0436 93.5029 49.9999 95.333 49.9999H97.333C99.1631 49.9999 100.333 48.0436 100.333 45.9999V34.9999C100.333 31.8138 98.0781 29.2177 95.333 28.9999ZM92.333 31.9999H89.333V30.9999H95.333C96.7741 31.137 98.333 33.1407 98.333 34.9999V45.9999C98.333 46.6873 97.823 46.9999 97.333 46.9999H95.333C94.8429 46.9999 94.333 46.6873 94.333 45.9999V34.9999C94.333 33.7222 93.5137 31.9999 92.333 31.9999ZM82.333 97.9999C82.333 99.0978 81.4224 99.9999 80.333 99.9999H76.333C75.2438 99.9999 74.333 99.0978 74.333 97.9999V95.9999H82.333V97.9999ZM26.333 95.9999V98.9999C26.333 100.097 25.4223 101 24.333 101H20.333C19.2438 101 18.333 100.097 18.333 98.9999V95.9999H26.333ZM87.333 14.9999V90.9999C87.333 92.8193 85.1397 93.9999 83.333 93.9999H17.333C15.5261 93.9999 13.333 92.8192 13.333 90.9999V14.9999C13.333 10.4076 17.7633 7.00012 22.333 6.99995C31.7239 6.13292 40.875 4.99995 50.333 4.99995C59.791 4.99995 68.9373 6.13258 78.333 6.99995C82.8937 6.99995 87.333 10.4076 87.333 14.9999ZM6.33301 34.9999V45.9999C6.33301 46.6873 5.82281 46.9999 5.33301 46.9999H3.33301C2.84287 46.9999 2.33301 46.6873 2.33301 45.9999V34.9999C2.33301 33.1405 3.91068 31.1361 5.33301 30.9999H11.333V31.9999H8.33301C7.15234 31.9999 6.33301 33.7223 6.33301 34.9999Z" fill="#093D5F"/>
<path d="M60.333 85H40.333C39.0993 85 38.333 85.864 38.333 87V89C38.333 90.136 39.0993 91 40.333 91H60.333C61.5646 91 62.333 90.1361 62.333 89V87C62.333 85.864 61.5648 85 60.333 85ZM60.333 89C60.333 89.103 60.4465 89 60.333 89H40.333C40.2193 89 40.333 89.103 40.333 89V87C40.2193 87 40.333 86.8951 40.333 87H60.333C60.333 86.8951 60.4465 87 60.333 87V89Z" fill="#093D5F"/>
<path d="M30.333 76C27.8512 76 25.333 77.5187 25.333 80C25.333 82.4813 27.8512 85 30.333 85C32.8149 85 34.333 82.4813 34.333 80C34.333 77.5187 32.8149 76 30.333 76ZM30.333 83C29.0043 83 27.333 81.3305 27.333 80C27.333 78.6695 29.0043 78 30.333 78C31.6617 78 32.333 78.6716 32.333 80C32.333 81.3284 31.6638 83 30.333 83Z" fill="#093D5F"/>
<path d="M19.333 74C16.8516 74 15.333 75.5182 15.333 78C15.333 80.4818 16.8518 83 19.333 83C21.8143 83 24.333 80.4818 24.333 78C24.333 75.5182 21.8143 74 19.333 74ZM19.333 81C18.0046 81 17.333 79.3287 17.333 78C17.333 76.6713 18.0046 76 19.333 76C20.6614 76 22.333 76.6692 22.333 78C22.333 79.3308 20.6635 81 19.333 81Z" fill="#093D5F"/>
<path d="M71.333 76C68.851 76 67.333 77.5187 67.333 80C67.333 82.4813 68.8512 85 71.333 85C73.8149 85 76.333 82.4813 76.333 80C76.333 77.5187 73.8149 76 71.333 76ZM71.333 83C70.0022 83 69.333 81.3305 69.333 80C69.333 78.6695 70.0022 78 71.333 78C72.6638 78 74.333 78.6716 74.333 80C74.333 81.3284 72.6617 83 71.333 83Z" fill="#093D5F"/>
<path d="M77.333 79C77.333 81.4818 79.8518 83 82.333 83C84.8143 83 86.333 81.4818 86.333 79C86.333 76.5182 84.8143 74 82.333 74C79.8518 74 77.333 76.5182 77.333 79ZM84.333 79C84.333 80.3287 83.6614 81 82.333 81C81.0046 81 79.333 80.3287 79.333 79C79.333 77.6713 81.0025 76 82.333 76C83.6635 76 84.333 77.6692 84.333 79Z" fill="#093D5F"/>
<path d="M30.333 20H70.333C72.0826 20 73.333 18.6951 73.333 17V12C73.333 10.3041 72.0826 9 70.333 9H30.333C28.5834 9 27.333 10.3041 27.333 12V17C27.333 18.6951 28.5834 20 30.333 20ZM29.333 17V12C29.333 11.5371 29.8559 11 30.333 11H70.333C70.8102 11 71.333 11.5371 71.333 12V17C71.333 17.4621 70.8102 18 70.333 18H30.333C29.8559 18 29.333 17.4621 29.333 17Z" fill="#093D5F"/>
<path d="M22.333 65C31.4872 66.0296 41.0604 67 50.333 67C59.6057 67 69.1029 66.0294 78.333 65C81.1853 64.9627 83.333 62.8559 83.333 60V29C83.333 26.109 81.2231 24 78.333 24H22.333C19.442 24 17.333 26.109 17.333 29V60C17.333 62.8539 19.481 64.9607 22.333 65ZM51.333 26H78.333C79.8867 26 81.333 27.4454 81.333 29V60C81.333 61.5537 79.8866 63 78.333 63C69.577 63.9771 60.1041 64.9569 51.333 65H49.333C40.505 64.9586 31.0425 63.9813 22.333 63C20.7783 63 19.333 61.5536 19.333 60V29C19.333 27.4453 20.7783 26 22.333 26H51.333Z" fill="#093D5F"/>
</g>
</g>
<defs>
<clipPath id="clip0_1396_11858">
<rect width="100" height="106" fill="white" transform="translate(0.333008)"/>
</clipPath>
<clipPath id="clip1_1396_11858">
<rect width="100" height="106" fill="white" transform="translate(0.333008)"/>
</clipPath>
</defs>
</svg>
