<svg width="100" height="106" viewBox="0 0 100 106" fill="none" xmlns="http://www.w3.org/2000/svg">
<g clip-path="url(#clip0_1396_11782)">
<path d="M48.9995 36.0001L52.9995 26.0001L29.9995 28.0001L24.9995 38.0001L48.9995 36.0001ZM77.9995 74.0001C77.9995 73.2896 79.2902 73.0001 79.9995 73.0001C80.7088 73.0001 80.9995 73.2896 80.9995 74.0001V95.0001C80.9995 95.7106 80.7086 96.0001 79.9995 96.0001C79.2904 96.0001 77.9995 95.7108 77.9995 95.0001V74.0001ZM69.9995 74.0001C69.9995 73.2896 70.2904 73.0001 70.9995 73.0001C71.7086 73.0001 72.9995 73.2896 72.9995 74.0001V95.0001C72.9995 95.7106 71.7085 96.0001 70.9995 96.0001C70.2906 96.0001 69.9995 95.7108 69.9995 95.0001V74.0001ZM61.9995 74.0001C61.9995 73.2896 62.2904 73.0001 62.9995 73.0001C63.7086 73.0001 63.9995 73.2896 63.9995 74.0001V95.0001C63.9995 95.7106 63.7086 96.0001 62.9995 96.0001C62.2904 96.0001 61.9995 95.7108 61.9995 95.0001V74.0001ZM52.9995 74.0001C52.9995 73.2896 53.2904 73.0001 53.9995 73.0001C54.7086 73.0001 55.9995 73.2896 55.9995 74.0001V95.0001C55.9995 95.7106 54.7088 96.0001 53.9995 96.0001C53.2902 96.0001 52.9995 95.7108 52.9995 95.0001V74.0001ZM44.9995 74.0001C44.9995 73.2896 45.2904 73.0001 45.9995 73.0001C46.7086 73.0001 46.9995 73.2896 46.9995 74.0001V95.0001C46.9995 95.7106 46.7085 96.0001 45.9995 96.0001C45.2906 96.0001 44.9995 95.7108 44.9995 95.0001V74.0001ZM35.9995 74.0001C35.9995 73.2896 37.2904 73.0001 37.9995 73.0001C38.7086 73.0001 38.9995 73.2896 38.9995 74.0001V95.0001C38.9995 95.7106 38.7086 96.0001 37.9995 96.0001C37.2904 96.0001 35.9995 95.7108 35.9995 95.0001V74.0001ZM28.9995 18.0001C29.0038 17.9092 29.9748 18.0917 29.9995 18.0001C30.1286 17.5261 29.7481 16.6558 29.9995 16.0001C30.3278 15.1438 30.8878 14.6155 30.9995 14.0001C31.0775 13.5708 31.1024 13.4307 30.9995 13.0001C30.8813 12.515 30.2865 11.5384 29.9995 11.0001C29.6726 10.3863 29.4939 9.56079 28.9995 9.00011C28.6175 8.56674 28.488 8.28395 27.9995 8.00011C27.4819 7.69815 26.6053 7.10913 25.9995 7.00011C25.309 6.8757 24.6512 6.9162 23.9995 7.00011C23.4062 7.07564 22.4924 7.76668 21.9995 8.00011C21.5131 8.23081 21.3848 8.61972 20.9995 9.00011C20.6122 9.38323 20.2789 9.50659 19.9995 10.0001C19.7099 10.5133 19.137 11.4591 18.9995 12.0001C18.8716 12.5035 18.97 12.5206 18.9995 13.0001C19.029 13.4866 19.8041 14.4688 19.9995 15.0001C20.335 15.9118 20.4962 16.1255 20.9995 17.0001C21.181 17.3152 20.8967 17.8142 20.9995 18.0001C21.3418 18.618 21.8578 19.5076 21.9995 20.0001C22.2362 20.8212 22.5275 21.4194 21.9995 22.0001C21.2941 22.7742 20.1135 22.9514 18.9995 23.0001C18.6086 23.0179 18.2361 22.9478 17.9995 23.0001C17.9397 23.0133 18.0321 22.9586 17.9995 23.0001C17.983 23.0211 18.0012 22.9365 17.9995 23.0001C17.9929 23.2154 17.9161 23.751 17.9995 24.0001C18.081 24.2433 17.8252 24.7443 17.9995 25.0001C18.2001 25.2944 18.6448 25.619 18.9995 26.0001C19.2301 26.2479 19.7328 25.7076 19.9995 26.0001C20.1934 26.2134 19.7916 26.773 19.9995 27.0001C20.0863 26.9868 20.9086 27.0034 20.9995 27.0001C21.5599 26.9803 21.5159 26.6688 21.9995 27.0001C22.4298 27.2944 22.6835 28.5539 22.9995 29.0001C23.2927 29.4142 23.8164 29.4857 23.9995 30.0001C24.1648 30.4659 23.8774 31.3642 23.9995 32.0001C24.0897 32.4682 24.9369 32.6927 24.9995 33.0001L25.9995 30.0001C25.1023 27.2436 24.4288 23.8884 23.9995 21.0001C23.5019 17.6535 22.9823 14.167 22.9995 11.0001C23.0022 10.2926 23.2931 9.9972 23.9995 10.0001C24.7061 10.0028 26.0021 10.2926 25.9995 11.0001C25.9833 14.0188 25.5167 17.7526 25.9995 21.0001C26.2625 22.77 26.5633 24.2769 26.9995 26.0001C26.9351 25.3536 27.0319 25.3935 26.9995 25.0001C26.9446 24.334 27.0041 23.591 26.9995 23.0001C26.9951 22.3996 26.9327 21.3954 26.9995 21.0001C27.0752 20.5517 27.8592 20.3209 27.9995 20.0001C28.13 19.7014 27.8494 19.2125 27.9995 19.0001C28.2054 18.7087 28.8264 19.1531 28.9995 19.0001C29.1962 18.8265 28.5871 18.1088 28.9995 18.0001ZM17.9995 29.0001V28.0001C17.7074 27.6795 17.16 27.1727 16.9995 27.0001C16.5599 26.5283 16.2794 26.4106 15.9995 26.0001C15.6936 25.5512 15.161 25.4812 14.9995 25.0001C14.8266 24.4839 14.984 23.5217 14.9995 23.0001C15.0176 22.4065 15.6559 21.4391 15.9995 21.0001C16.3793 20.5153 16.3796 21.1372 16.9995 21.0001C17.4428 20.9024 17.4923 20.0232 17.9995 20.0001H18.9995C19.3461 19.9851 19.7498 20.0061 19.9995 20.0001C19.8997 19.7739 19.1675 20.3034 18.9995 20.0001C18.8269 19.6884 19.1356 19.2366 18.9995 19.0001C18.4359 18.0206 17.3969 17.0801 16.9995 16.0001C16.7197 15.2395 17.045 13.7496 16.9995 13.0001C16.9533 12.2438 16.808 11.7551 16.9995 11.0001C17.1881 10.2549 17.5895 9.72569 17.9995 9.00011C18.3906 8.30939 18.4379 7.55515 18.9995 7.00011C19.5904 6.41568 20.2503 6.35658 20.9995 6.00011C21.7257 5.65612 23.1246 5.11204 23.9995 5.00011C24.8945 4.88545 25.0467 4.82957 25.9995 5.00011C26.8916 5.16091 28.2208 5.54555 28.9995 6.00011C29.7395 6.43074 30.4454 6.37228 30.9995 7.00011C31.6409 7.72723 32.5897 9.23112 32.9995 10.0001C33.3839 10.7216 32.8281 11.2884 32.9995 12.0001C33.184 12.7664 33.1445 13.2033 32.9995 14.0001C32.8457 14.8474 33.3703 16.0334 32.9995 17.0001C32.9013 17.2564 32.0841 17.7704 31.9995 18.0001C32.4549 17.9558 33.3854 18.0568 33.9995 18.0001C36.3112 17.7872 40.0539 17.2375 42.9995 17.0001C45.2689 16.8169 47.2833 17.1001 48.9995 17.0001C51.006 16.8836 52.2947 15.9512 52.9995 16.0001C53.9668 16.0673 53.6634 16.7773 53.9995 17.0001C54.3602 17.2395 54.7584 17.5151 54.9995 18.0001C55.1748 18.3528 55.8837 18.3174 55.9995 19.0001C56.0945 19.5601 55.9119 21.1231 55.9995 22.0001C56.0938 22.9427 55.9395 23.3121 55.9995 24.0001L59.9995 29.0001C60.6124 26.2213 61.2367 26.2307 61.9995 25.0001C62.5889 24.0493 63.1088 22.1919 63.9995 21.0001C64.5998 20.1968 65.4833 19.7486 65.9995 19.0001C66.5758 18.1646 66.6308 17.7255 66.9995 17.0001C67.3664 16.2786 67.7396 14.7467 67.9995 14.0001C68.422 12.7865 69.6231 11.4682 69.9995 10.0001C69.5426 9.79453 68.2625 9.40272 67.9995 9.00011C67.685 8.46729 67.8631 7.6517 67.9995 7.00011C68.2734 5.6942 68.704 5.29901 68.9995 4.00011C69.2674 2.82134 70.0545 1.6182 70.9995 1.00011C71.9612 0.370908 72.7924 -0.252972 73.9995 0.000109319L81.9995 2.00011C81.9333 1.98046 82.07 2.00985 81.9995 2.00011C83.1585 2.27558 84.3897 3.06468 84.9995 4.00011C85.609 4.93554 86.2166 5.82698 85.9995 7.00011C85.9912 7.07 86.0186 6.93449 85.9995 7.00011L84.9995 11.0001C84.8535 11.6965 84.5473 12.6421 83.9995 13.0001C83.9668 13.0225 84.0335 12.9818 83.9995 13.0001C83.617 13.2265 82.4593 12.9958 81.9995 13.0001C81.7579 14.4781 82.1018 15.692 81.9995 17.0001C81.9357 17.8128 81.955 19.2171 81.9995 20.0001C82.0447 20.7915 81.8039 20.982 81.9995 22.0001C82.1629 22.8489 82.7678 24.0016 82.9995 25.0001C83.3319 26.4303 83.8358 27.8489 83.9995 29.0001C84.0718 29.508 84.0474 30.2332 83.9995 31.0001L89.9995 25.0001C90.8116 24.2069 91.9433 22.9863 92.9995 23.0001C94.0586 23.014 95.2068 24.185 95.9995 25.0001C96.5437 25.7412 97.0106 27.12 96.9995 28.0001C96.9855 29.061 96.813 29.206 95.9995 30.0001L86.9995 39.0001C89.1591 39.1377 91.2231 39.9806 92.9995 41.0001C93.7559 40.4191 94.9851 39.6843 95.9995 39.0001C96.4851 38.6742 96.6745 38.5133 96.9995 39.0001C97.3246 39.4866 97.4849 40.6742 96.9995 41.0001C96.2655 41.4955 95.576 41.5799 94.9995 42.0001C95.3708 42.3021 95.6618 42.6621 95.9995 43.0001C98.4973 45.5032 99.9995 49.1808 99.9995 53.0001C99.9995 53.6889 100.099 54.3292 99.9995 55.0001C99.9018 55.665 99.1977 56.3475 98.9995 57.0001C99.4433 57.8727 99.9995 58.9579 99.9995 60.0001V63.0001C99.9995 64.7705 99.1633 65.8347 97.9995 67.0001C96.9892 68.0126 95.4925 68.8395 93.9995 69.0001L88.9995 99.0001C88.6535 101.085 88.2909 102.624 86.9995 104C85.7791 105.301 83.9205 106 81.9995 106H34.9995C33.062 106 31.2394 105.322 29.9995 104C28.7082 102.623 28.2784 100.098 27.9995 98.0001L23.9995 69.0001C22.5654 68.8113 20.9764 67.9786 19.9995 67.0001C18.8362 65.8347 17.9995 64.7705 17.9995 63.0001V60.0001C17.9995 58.2297 18.8364 56.1656 19.9995 55.0001C20.1012 54.8981 20.8916 55.095 20.9995 55.0001C20.5902 54.9321 19.3885 55.0068 18.9995 55.0001C18.4574 54.9907 18.5482 54.942 17.9995 55.0001C16.9094 55.1153 15.8824 55.3764 14.9995 55.0001C14.2177 54.6669 13.2961 53.737 12.9995 53.0001C12.6965 52.2468 12.8223 51.7274 12.9995 51.0001C13.1769 50.2742 13.5319 49.4453 13.9995 49.0001C14.3924 48.6257 14.5766 48.2323 14.9995 48.0001C14.0499 47.8713 12.3147 48.7219 10.9995 49.0001C10.2391 49.1613 9.6735 48.9545 8.99952 49.0001C8.20785 49.0538 7.71614 49.3371 6.99952 49.0001C6.3228 48.6818 5.47601 47.6308 4.99952 47.0001C4.5266 46.3743 4.22054 45.7684 3.99952 45.0001C3.78531 44.2554 3.93488 43.7127 3.99952 43.0001C4.06842 42.2465 4.64496 41.6153 4.99952 41.0001C5.34828 40.3952 5.47748 39.4084 5.99952 39.0001C6.4946 38.6125 6.51449 38.2317 6.99952 38.0001C7.10645 37.9492 7.87127 38.0556 7.99952 38.0001C7.66713 37.8894 7.42587 38.0943 6.99952 38.0001C6.18858 37.8205 4.77395 37.3744 3.99952 37.0001C3.26669 36.6462 2.51217 36.604 1.99952 36.0001C1.52575 35.442 1.35561 34.7368 0.999516 34.0001C0.623127 33.2212 0.209455 31.9538 -0.00048402 31.0001C-0.180578 30.1821 -0.087461 29.852 -0.00048402 29.0001C0.0921209 28.0954 0.606073 26.8111 0.999516 26.0001C1.42315 25.1255 1.38027 24.6572 1.99952 24.0001C2.60017 23.3629 3.28613 22.3894 3.99952 22.0001C4.7291 21.6014 6.1821 21.1346 6.99952 21.0001C7.77975 20.8719 8.21485 20.9102 8.99952 21.0001C9.81403 21.0934 10.2769 21.7106 10.9995 22.0001C11.7282 22.2922 12.4214 22.5213 12.9995 23.0001C13.5765 23.4776 14.5506 24.3253 14.9995 25.0001C15.628 25.9446 16.538 26.9587 16.9995 28.0001C17.0792 28.1797 16.7911 28.5502 16.9995 29.0001C17.1446 29.3135 16.8767 29.7872 16.9995 30.0001C17.1508 29.8017 17.7839 29.271 17.9995 29.0001ZM62.9995 51.0001C62.5442 49.9302 62.1208 49.3397 61.9995 48.0001C61.8636 46.4938 61.6497 44.6698 61.9995 43.0001C62.6102 40.0879 64.4007 37.6888 65.9995 36.0001C67.7467 34.1544 69.8914 32.5565 71.9995 33.0001C73.3113 33.2759 74.1373 34.8813 74.9995 36.0001C75.5468 36.7103 75.6695 37.0414 75.9995 38.0001L80.9995 34.0001C81.1609 33.0804 80.9325 31.8421 80.9995 31.0001C81.0582 30.2603 81.0536 29.38 80.9995 29.0001C80.8539 27.9753 80.3207 27.3829 79.9995 26.0001C79.7659 24.9939 80.1791 23.9337 79.9995 23.0001C79.7834 21.8774 79.0517 20.9184 78.9995 20.0001C78.9468 19.0729 78.9287 17.9049 78.9995 17.0001C79.1088 15.6029 79.7423 14.5675 79.9995 13.0001L71.9995 11.0001C71.6095 12.5227 71.4695 13.6508 70.9995 15.0001C70.6934 15.88 70.4087 17.1957 69.9995 18.0001C69.5924 18.8011 68.6604 19.0418 67.9995 20.0001C67.4853 20.7452 66.631 22.1551 65.9995 23.0001C65.163 24.1192 64.5671 25.0848 63.9995 26.0001C63.1794 27.3231 63.229 28.0453 61.9995 34.0001V35.0001C61.4291 37.7592 60.6223 41.0163 59.9995 44.0001L57.9995 54.0001H60.9995L62.9995 51.0001ZM73.9995 40.0001C73.7608 38.789 73.5787 37.752 72.9995 37.0001C72.5065 36.3605 71.6825 36.144 70.9995 36.0001C69.8219 35.7522 69.1398 36.7955 67.9995 38.0001C66.7106 39.3616 65.51 40.5658 64.9995 43.0001C64.7011 44.425 64.8861 45.7453 64.9995 47.0001C65.0611 47.6797 64.8317 48.4107 64.9995 49.0001L73.9995 40.0001ZM78.9995 44.0001C78.9683 44.028 79.028 43.9695 78.9995 44.0001L93.9995 29.0001C94.3065 28.6997 94.9939 28.4012 94.9995 28.0001C95.005 27.597 94.2995 26.3096 93.9995 26.0001C93.7009 25.7007 93.393 26.0054 92.9995 26.0001C92.5962 25.995 92.3077 25.6987 91.9995 26.0001L61.9995 56.0001C61.9586 56.0462 62.0464 55.9605 61.9995 56.0001L56.9995 60.0001C56.6919 60.3005 57.0046 60.5987 56.9995 61.0001C56.9942 61.3976 56.7072 61.6923 56.9995 62.0001C57.2992 62.3086 57.5991 62.9948 57.9995 63.0001C58.4017 63.0051 59.6907 62.3017 59.9995 62.0001L67.9995 54.0001C67.9514 54.0408 68.0415 53.9526 67.9995 54.0001L78.9995 44.0001ZM80.9995 45.0001V46.0001C80.3755 48.932 79.365 52.2793 78.9995 54.0001H93.9995C95.529 54.0001 96.8942 54.098 97.9995 55.0001C98.0817 54.4393 97.9995 53.5945 97.9995 53.0001C97.9995 49.7683 96.1122 47.1179 93.9995 45.0001C93.6115 44.6117 93.4376 44.3313 92.9995 44.0001C92.105 44.8609 91.8437 45.4859 90.9995 47.0001C90.7149 47.5119 89.5103 48.2846 88.9995 48.0001C88.4889 47.7158 88.715 46.5119 88.9995 46.0001C89.855 44.4649 90.1413 43.8962 90.9995 43.0001C89.4464 42.2339 87.8489 41.0001 85.9995 41.0001C85.6612 41.0001 85.3222 40.9731 84.9995 41.0001C84.882 41.01 85.1134 40.9871 84.9995 41.0001L80.9995 45.0001ZM75.9995 54.0001C76.272 52.712 77.5766 50.9877 77.9995 49.0001L71.9995 54.0001H75.9995ZM54.9995 54.0001L56.9995 43.0001C57.7581 39.3661 58.5844 37.0084 58.9995 35.0001V34.0001L59.9995 33.0001L54.9995 27.0001L50.9995 37.0001L52.9995 54.0001H54.9995ZM81.9995 4.00011L73.9995 3.00011C73.4954 2.90783 72.4025 2.73729 71.9995 3.00011C71.5987 3.26293 71.1163 3.50249 70.9995 4.00011V8.00011L81.9995 10.0001C82.0173 9.98746 82.9378 7.33436 82.9995 7.00011C83.1088 6.47857 83.2709 5.41673 82.9995 5.00011C82.7307 4.58759 82.5147 4.10913 81.9995 4.00011ZM22.9995 37.0001C22.8382 35.9046 22.2248 34.1051 21.9995 33.0001V32.0001C21.9015 31.4904 22.1196 31.3383 21.9995 31.0001C21.8967 30.7111 21.1475 30.2091 20.9995 30.0001C20.8491 29.7879 21.1769 30.1214 20.9995 30.0001C20.9415 29.9603 21.0295 29.9991 20.9995 30.0001C20.9431 30.002 21.0471 29.9579 20.9995 30.0001C20.8235 30.1561 20.2159 29.7306 19.9995 30.0001C19.3042 30.8737 18.0402 31.8848 16.9995 32.0001C16.2208 32.0871 15.5256 31.679 14.9995 31.0001C14.685 30.5941 15.2959 30.6401 14.9995 30.0001L13.9995 29.0001C13.5941 28.085 13.5466 26.8224 12.9995 26.0001C12.6862 25.5293 12.3756 25.3113 11.9995 25.0001C11.6248 24.6898 10.4745 24.1905 9.99952 24.0001C9.49266 23.7971 9.59454 24.0683 8.99952 24.0001C8.43314 23.9352 7.53468 23.9121 6.99952 24.0001C6.46401 24.0883 6.47039 23.7428 5.99952 24.0001C5.52831 24.2573 4.41496 25.5594 3.99952 26.0001C3.5486 26.4786 3.30496 26.3699 2.99952 27.0001C2.72801 27.5604 3.05989 28.4099 2.99952 29.0001C2.9417 29.5649 2.87519 30.4355 2.99952 31.0001C3.15914 31.7247 2.69424 32.3683 2.99952 33.0001C3.26539 33.5499 3.676 33.6189 3.99952 34.0001C4.28415 34.3352 4.60863 34.8115 4.99952 35.0001C5.51865 35.2508 6.3373 34.8535 6.99952 35.0001C7.59522 35.1319 8.5017 35.8104 8.99952 36.0001C9.67367 36.2566 9.64615 36.6197 9.99952 37.0001C10.586 37.632 11.2248 38.3234 10.9995 39.0001C10.7086 39.8644 9.86451 40.631 8.99952 41.0001C8.83972 41.0681 9.2364 40.8872 8.99952 41.0001C8.6424 41.1707 8.307 40.7593 7.99952 41.0001C7.71914 41.2195 7.17245 41.7007 6.99952 42.0001C6.82966 42.2949 7.03414 42.6207 6.99952 43.0001C6.96251 43.4072 6.87468 43.5657 6.99952 44.0001C7.13083 44.4571 6.70516 45.6107 6.99952 46.0001C7.24083 46.3198 7.72562 45.8713 7.99952 46.0001C8.26556 46.1252 8.60778 47.0266 8.99952 47.0001C9.5091 46.9656 10.3363 46.1406 10.9995 46.0001C12.51 45.6802 14.6118 45.8116 15.9995 46.0001C16.7535 46.1025 16.535 45.6783 16.9995 46.0001C17.7226 46.5011 18.9724 47.3754 18.9995 48.0001C19.0515 49.2064 17.9621 49.5013 16.9995 50.0001V51.0001C16.7307 51.1464 16.2076 50.8019 15.9995 51.0001C15.8551 51.1375 16.0432 51.8217 15.9995 52.0001C15.8931 51.7351 15.9408 52.2412 15.9995 52.0001C16.0582 52.1459 15.9055 52.96 15.9995 53.0001C16.2724 53.1165 17.2566 53.0785 17.9995 53.0001C18.6089 52.9359 18.2817 52.9876 18.9995 53.0001C20.1942 53.0206 21.8245 52.6679 22.9995 53.0001V47.0001C21.4984 43.7851 18.5166 40.8474 15.9995 38.0001C13.0107 34.6185 10.395 31.4499 6.99952 29.0001C6.42598 28.5864 5.5868 28.5746 5.99952 28.0001C6.41223 27.4256 7.42615 26.5866 7.99952 27.0001C11.5356 29.5511 14.8769 33.4674 17.9995 37.0001C19.3579 38.5371 20.8705 39.3338 21.9995 41.0001V39.0001C21.9098 39.2047 21.9816 38.792 21.9995 39.0001L22.9995 37.0001ZM15.9995 49.0001V48.0001C15.9961 47.916 16.0145 48.9253 15.9995 49.0001ZM15.9995 49.0001C15.997 49.0324 16.0094 49.0109 15.9995 49.0001V49.0001ZM69.9995 56.0001L60.9995 64.0001C60.187 64.7932 59.0564 65.0139 57.9995 65.0001C56.9464 64.9861 56.7908 64.8067 55.9995 64.0001C55.2079 63.1858 53.9857 62.0587 53.9995 61.0001C54.0132 59.9445 55.1946 58.7929 55.9995 58.0001L57.9995 56.0001H24.9995C23.9413 56.0001 22.6981 56.3 21.9995 57.0001C21.301 57.7001 20.9995 58.9398 20.9995 60.0001V63.0001C20.9995 64.0605 21.301 64.3002 21.9995 65.0001C22.6982 65.7002 23.9413 66.0001 24.9995 66.0001H54.9995C55.7086 66.0001 55.9995 67.2896 55.9995 68.0001C55.9995 68.7106 55.7086 69.0001 54.9995 69.0001H25.9995L29.9995 98.0001C30.205 99.547 31.0764 101.016 31.9995 102C32.8024 102.856 33.7522 103 34.9995 103H81.9995C83.2247 103 84.2159 102.836 84.9995 102C85.9327 101.005 86.7367 99.5799 86.9995 98.0001L91.9995 69.0001H62.9995C62.2904 69.0001 61.9995 68.7108 61.9995 68.0001C61.9995 67.2894 62.2904 66.0001 62.9995 66.0001H93.9995C95.0572 66.0001 95.3005 65.7001 95.9995 65.0001C96.6972 64.3002 96.9995 64.0605 96.9995 63.0001V60.0001C96.9995 58.9398 96.697 57.7001 95.9995 57.0001C95.3005 56.3 95.0572 56.0001 93.9995 56.0001H69.9995ZM58.9995 66.0001C59.7086 66.0001 60.9995 67.2896 60.9995 68.0001C60.9995 68.7106 59.7086 69.0001 58.9995 69.0001H57.9995C57.2904 69.0001 56.9995 68.7108 56.9995 68.0001C56.9995 67.2894 57.2902 66.0001 57.9995 66.0001H58.9995ZM52.9995 23.0001C52.9489 22.4242 53.0324 22.3309 52.9995 22.0001C52.9195 21.2009 53.0892 20.529 52.9995 20.0001C52.9308 19.5943 53.0648 19.1317 52.9995 19.0001C52.9731 18.9827 52.3541 19.0249 51.9995 19.0001C51.3827 18.9574 50.8813 18.8907 48.9995 19.0001C47.4413 19.0908 45.3605 19.8096 42.9995 20.0001C39.5796 20.2759 35.9792 19.8174 33.9995 20.0001C32.1962 20.1662 31.636 20.9104 30.9995 21.0001C30.6922 21.0433 30.0776 20.9311 29.9995 21.0001C29.9361 21.056 30.0578 20.9183 29.9995 21.0001C29.9342 21.0926 30.0498 20.8846 29.9995 21.0001C29.9383 21.1402 30.0369 21.7792 29.9995 22.0001C29.9531 22.2742 29.9961 22.5772 29.9995 23.0001C30.0028 23.4326 29.9436 23.3219 29.9995 24.0001C30.0248 24.3072 29.9758 24.7412 29.9995 25.0001L52.9995 23.0001ZM49.9995 54.0001L48.9995 39.0001L24.9995 40.0001L25.9995 54.0001H49.9995Z" fill="#093D5F"/>
</g>
<defs>
<clipPath id="clip0_1396_11782">
<rect width="100" height="106" fill="white"/>
</clipPath>
</defs>
</svg>
