<svg width="181" height="33" viewBox="0 0 181 33" fill="none" xmlns="http://www.w3.org/2000/svg">
<g clip-path="url(#clip0_1396_11731)">
<g clip-path="url(#clip1_1396_11731)">
<path d="M14 15C16.6247 13.6919 20 11.268 20 7C20 2.54737 15.8426 0 10 0C4.3898 0 1 3.7719 1 9C1 12.5114 2.6095 15.0658 6 17C1.91242 18.7577 0 21.3187 0 25C0 29.9918 3.58145 33 10 33C17.2785 33 21 28.4822 21 24C21 18.8679 17.5419 16.5058 14 15ZM11 2C12.6085 2 14.0714 2.08174 15 3C16.0333 4.02412 16 6.03792 16 8C16 11.4901 14.7572 12.9143 12 14C7.44606 12.3079 5 10.9176 5 7C5 3.66586 7.6725 2.04267 11 2ZM4 25C4 21.1817 4.89177 19.0857 8 18H10C15.1144 19.88 17 20.7591 17 25C17 28.7879 14.2234 31 10 31C6.23887 31 4 28.6419 4 25Z" fill="white"/>
<path d="M36 0C29.0462 0 24 6.60074 24 16C24 25.7226 29.0454 33 36 33C39.56 33 42.7701 31.385 45 28C47.0302 24.9194 48 20.4034 48 16C48 6.45056 43.0654 0 36 0ZM43 16C43 25.7218 40.719 31 36 31C31.281 31 29 25.7218 29 16C29 6.27824 31.0764 2 36 2C40.8551 2 43 6.3685 43 16Z" fill="white"/>
<path d="M101 0C92.873 0 87 6.6768 87 16C87 25.2171 92.873 32 101 32C109.127 32 115 25.2171 115 16C115 6.6768 109.097 0 101 0ZM101 31C92.3746 31 91 20.3405 91 16C91 10.5415 92.6856 1 101 1C109.579 1 111 11.604 111 16C111 20.3405 109.579 31 101 31Z" fill="white"/>
<path d="M139 2C139.398 2.04617 139.763 1.9028 140 2C140.639 2.27459 141.759 2.49779 142 3C142.287 3.64963 142 4.70847 142 7V25L126 1H120V2C120.322 2.06723 120.598 1.81856 121 2C121.698 2.30375 122.657 3.32121 123 4C123.52 5.03358 124 6.74654 124 9V25C124 27.1352 123.291 28.2491 123 29C122.759 29.5954 122.436 29.8315 122 30C121.691 30.1142 121.448 30.9538 121 31V32H129V31H128C127.585 30.9579 127.322 30.1223 127 30C126.336 29.7465 126.22 29.5273 126 29C125.734 28.3123 125 27.2413 125 25V7L142 32H143H144V7C144 4.70442 143.708 3.65044 144 3C144.283 2.36252 145.467 2.16038 146 2C146.309 1.88174 146.548 2.04212 147 2V1H139V2Z" fill="white"/>
<path d="M74 15C74.8212 14.7049 75.3445 14.3987 76 14C77.32 13.2206 79 11.337 79 8C79 3.14698 75.8176 1 69 1H58V2C58.3347 2.04686 58.7417 1.92272 59 2C59.4484 2.14963 60.7839 2.30201 61 3C61.5207 4.40091 61 8.15215 61 11V22C61 24.8742 61.5166 28.5572 61 30C60.818 30.467 59.5759 30.8076 59 31C58.7628 31.0773 58.3257 30.9531 58 31V32H71C76.9752 32 81 28.4433 81 23C81 19.0382 78.5659 15.8567 74 15ZM65 6C65 4.7109 64.8733 4.54425 65 4C65.2161 3.11786 65.7304 2 67 2H69C73.418 2 75 4.05954 75 8C75 8.85255 75.1128 11.5267 74 13C73.6231 13.4793 72.3102 15 70 15H65V6ZM75 29C73.9716 30.1567 72.1583 31 70 31H68C66.7937 31 65.3558 29.7966 65 29C64.7165 28.3916 65 27.7429 65 26V16H70C72.6529 16 73.7986 17.0151 75 18C76.2826 19.0877 77 20.3782 77 23C77 25.6727 76.1721 27.655 75 29Z" fill="white"/>
<path d="M174 3C172.275 2.14339 169.772 1 166 1H153V2C153.095 2.01315 153.892 1.99178 154 2C153.721 1.91368 154.245 2.02548 154 2C154.601 2.19237 155.789 2.5199 156 3C156.412 4.23313 156 7.44942 156 11V22C156 25.5506 156.404 28.7965 156 30C155.786 30.4965 155.64 30.7468 155 31C154.623 31.1546 153.416 30.9449 153 31V32H166C168.854 32 170.674 31.2381 173 30C175.832 28.4964 181 25.3343 181 17C181 8.88438 177.373 4.78146 174 3ZM172 28C170.202 29.7428 169.09 31 166 31H163C161.884 31 161.369 30.2918 161 30C160.107 29.3193 159.983 27.6154 160 26V7C160 6.81174 160.004 6.20552 160 6C159.97 4.62054 160.034 3.59519 161 3C161.447 2.73036 162.116 2 163 2H166C168.756 2 170.022 3.39365 172 5C174.824 7.30019 177 11.8348 177 17C177 21.8355 174.622 25.4992 172 28Z" fill="white"/>
</g>
</g>
<defs>
<clipPath id="clip0_1396_11731">
<rect width="181" height="33" fill="white"/>
</clipPath>
<clipPath id="clip1_1396_11731">
<rect width="181" height="33" fill="white"/>
</clipPath>
</defs>
</svg>
